<mxfile host="app.diagrams.net" modified="2024-06-05T08:44:24.108Z" agent="Mozilla/5.0 (Macintosh; Intel Mac OS X 10_15_7) AppleWebKit/537.36 (KHTML, like Gecko) Chrome/124.0.0.0 Safari/537.36" etag="MtMbJTcTFHkLQo7UqPJm" version="24.4.13" type="github">
  <diagram name="第 1 页" id="ruObpeMu40LA795dVUHB">
    <mxGraphModel dx="1434" dy="786" grid="1" gridSize="10" guides="1" tooltips="1" connect="1" arrows="1" fold="1" page="1" pageScale="1" pageWidth="827" pageHeight="1169" math="0" shadow="0">
      <root>
        <mxCell id="0" />
        <mxCell id="1" parent="0" />
        <mxCell id="W8vYtDV4f-9OD0nS3D89-45" value="文件下载任务状态机" style="rounded=0;whiteSpace=wrap;html=1;verticalAlign=top;" vertex="1" parent="1">
          <mxGeometry x="810" y="40" width="670" height="440" as="geometry" />
        </mxCell>
        <mxCell id="W8vYtDV4f-9OD0nS3D89-1" value="录音文件" style="swimlane;childLayout=stackLayout;resizeParent=1;resizeParentMax=0;startSize=20;html=1;" vertex="1" parent="1">
          <mxGeometry x="40" y="40" width="680" height="690" as="geometry" />
        </mxCell>
        <mxCell id="W8vYtDV4f-9OD0nS3D89-2" value="notification" style="swimlane;startSize=20;html=1;" vertex="1" parent="W8vYtDV4f-9OD0nS3D89-1">
          <mxGeometry y="20" width="240" height="670" as="geometry" />
        </mxCell>
        <mxCell id="W8vYtDV4f-9OD0nS3D89-6" value="发起IVR" style="rounded=0;whiteSpace=wrap;html=1;" vertex="1" parent="W8vYtDV4f-9OD0nS3D89-2">
          <mxGeometry x="55" y="50" width="120" height="60" as="geometry" />
        </mxCell>
        <mxCell id="W8vYtDV4f-9OD0nS3D89-18" value="" style="edgeStyle=orthogonalEdgeStyle;rounded=0;orthogonalLoop=1;jettySize=auto;html=1;" edge="1" parent="W8vYtDV4f-9OD0nS3D89-2" source="W8vYtDV4f-9OD0nS3D89-11" target="W8vYtDV4f-9OD0nS3D89-17">
          <mxGeometry relative="1" as="geometry" />
        </mxCell>
        <mxCell id="W8vYtDV4f-9OD0nS3D89-11" value="拨打结果" style="rounded=0;whiteSpace=wrap;html=1;" vertex="1" parent="W8vYtDV4f-9OD0nS3D89-2">
          <mxGeometry x="55" y="220" width="120" height="60" as="geometry" />
        </mxCell>
        <mxCell id="W8vYtDV4f-9OD0nS3D89-20" value="" style="edgeStyle=orthogonalEdgeStyle;rounded=0;orthogonalLoop=1;jettySize=auto;html=1;dashed=1;" edge="1" parent="W8vYtDV4f-9OD0nS3D89-2" source="W8vYtDV4f-9OD0nS3D89-17" target="W8vYtDV4f-9OD0nS3D89-19">
          <mxGeometry relative="1" as="geometry" />
        </mxCell>
        <mxCell id="W8vYtDV4f-9OD0nS3D89-17" value="解析录音地址&amp;amp;插入下载任务" style="rounded=0;whiteSpace=wrap;html=1;fillColor=#ffe6cc;strokeColor=#d79b00;" vertex="1" parent="W8vYtDV4f-9OD0nS3D89-2">
          <mxGeometry x="55" y="360" width="120" height="60" as="geometry" />
        </mxCell>
        <mxCell id="W8vYtDV4f-9OD0nS3D89-19" value="[job]扫描任务，并发执行下载&amp;amp;上传&lt;div&gt;- 按updateTime扫描任务&lt;/div&gt;&lt;div&gt;- 失败最多重试3次&amp;amp;报警&lt;/div&gt;&lt;div&gt;- 并发可配置，及时干预&lt;/div&gt;&lt;div&gt;- 带宽预警&lt;/div&gt;" style="rounded=0;whiteSpace=wrap;html=1;fillColor=#ffe6cc;strokeColor=#d79b00;" vertex="1" parent="W8vYtDV4f-9OD0nS3D89-2">
          <mxGeometry x="42.5" y="500" width="145" height="100" as="geometry" />
        </mxCell>
        <mxCell id="W8vYtDV4f-9OD0nS3D89-3" value="IVR服务商" style="swimlane;startSize=20;html=1;" vertex="1" parent="W8vYtDV4f-9OD0nS3D89-1">
          <mxGeometry x="240" y="20" width="220" height="670" as="geometry" />
        </mxCell>
        <mxCell id="W8vYtDV4f-9OD0nS3D89-10" value="" style="edgeStyle=orthogonalEdgeStyle;rounded=0;orthogonalLoop=1;jettySize=auto;html=1;dashed=1;" edge="1" parent="W8vYtDV4f-9OD0nS3D89-3" source="W8vYtDV4f-9OD0nS3D89-7" target="W8vYtDV4f-9OD0nS3D89-9">
          <mxGeometry relative="1" as="geometry" />
        </mxCell>
        <mxCell id="W8vYtDV4f-9OD0nS3D89-7" value="创建IVR任务" style="rounded=0;whiteSpace=wrap;html=1;" vertex="1" parent="W8vYtDV4f-9OD0nS3D89-3">
          <mxGeometry x="45" y="50" width="120" height="60" as="geometry" />
        </mxCell>
        <mxCell id="W8vYtDV4f-9OD0nS3D89-9" value="拨号&amp;amp;通话" style="rounded=0;whiteSpace=wrap;html=1;" vertex="1" parent="W8vYtDV4f-9OD0nS3D89-3">
          <mxGeometry x="45" y="165" width="120" height="60" as="geometry" />
        </mxCell>
        <mxCell id="W8vYtDV4f-9OD0nS3D89-13" value="结果查询" style="rounded=0;whiteSpace=wrap;html=1;" vertex="1" parent="W8vYtDV4f-9OD0nS3D89-3">
          <mxGeometry x="45" y="280" width="120" height="60" as="geometry" />
        </mxCell>
        <mxCell id="W8vYtDV4f-9OD0nS3D89-4" value="七牛云" style="swimlane;startSize=20;html=1;" vertex="1" parent="W8vYtDV4f-9OD0nS3D89-1">
          <mxGeometry x="460" y="20" width="220" height="670" as="geometry" />
        </mxCell>
        <mxCell id="W8vYtDV4f-9OD0nS3D89-26" value="云文件" style="rounded=0;whiteSpace=wrap;html=1;" vertex="1" parent="W8vYtDV4f-9OD0nS3D89-4">
          <mxGeometry x="50" y="520" width="120" height="60" as="geometry" />
        </mxCell>
        <mxCell id="W8vYtDV4f-9OD0nS3D89-8" value="" style="edgeStyle=orthogonalEdgeStyle;rounded=0;orthogonalLoop=1;jettySize=auto;html=1;" edge="1" parent="W8vYtDV4f-9OD0nS3D89-1" source="W8vYtDV4f-9OD0nS3D89-6" target="W8vYtDV4f-9OD0nS3D89-7">
          <mxGeometry relative="1" as="geometry" />
        </mxCell>
        <mxCell id="W8vYtDV4f-9OD0nS3D89-12" value="" style="edgeStyle=orthogonalEdgeStyle;rounded=0;orthogonalLoop=1;jettySize=auto;html=1;entryX=1;entryY=0.25;entryDx=0;entryDy=0;" edge="1" parent="W8vYtDV4f-9OD0nS3D89-1" source="W8vYtDV4f-9OD0nS3D89-9" target="W8vYtDV4f-9OD0nS3D89-11">
          <mxGeometry relative="1" as="geometry" />
        </mxCell>
        <mxCell id="W8vYtDV4f-9OD0nS3D89-15" value="被动回调" style="edgeLabel;html=1;align=center;verticalAlign=middle;resizable=0;points=[];" vertex="1" connectable="0" parent="W8vYtDV4f-9OD0nS3D89-12">
          <mxGeometry x="-0.0267" y="-1" relative="1" as="geometry">
            <mxPoint as="offset" />
          </mxGeometry>
        </mxCell>
        <mxCell id="W8vYtDV4f-9OD0nS3D89-14" style="edgeStyle=orthogonalEdgeStyle;rounded=0;orthogonalLoop=1;jettySize=auto;html=1;entryX=1;entryY=0.65;entryDx=0;entryDy=0;entryPerimeter=0;" edge="1" parent="W8vYtDV4f-9OD0nS3D89-1" source="W8vYtDV4f-9OD0nS3D89-13" target="W8vYtDV4f-9OD0nS3D89-11">
          <mxGeometry relative="1" as="geometry" />
        </mxCell>
        <mxCell id="W8vYtDV4f-9OD0nS3D89-16" value="主动轮询" style="edgeLabel;html=1;align=center;verticalAlign=middle;resizable=0;points=[];" vertex="1" connectable="0" parent="W8vYtDV4f-9OD0nS3D89-14">
          <mxGeometry x="0.0559" y="1" relative="1" as="geometry">
            <mxPoint as="offset" />
          </mxGeometry>
        </mxCell>
        <mxCell id="W8vYtDV4f-9OD0nS3D89-25" style="edgeStyle=orthogonalEdgeStyle;rounded=0;orthogonalLoop=1;jettySize=auto;html=1;entryX=0;entryY=0.5;entryDx=0;entryDy=0;" edge="1" parent="W8vYtDV4f-9OD0nS3D89-1" source="W8vYtDV4f-9OD0nS3D89-19" target="W8vYtDV4f-9OD0nS3D89-26">
          <mxGeometry relative="1" as="geometry">
            <mxPoint x="520" y="550" as="targetPoint" />
          </mxGeometry>
        </mxCell>
        <mxCell id="W8vYtDV4f-9OD0nS3D89-27" value="上传" style="edgeLabel;html=1;align=center;verticalAlign=middle;resizable=0;points=[];" vertex="1" connectable="0" parent="W8vYtDV4f-9OD0nS3D89-25">
          <mxGeometry x="-0.0667" y="-2" relative="1" as="geometry">
            <mxPoint x="1" as="offset" />
          </mxGeometry>
        </mxCell>
        <mxCell id="W8vYtDV4f-9OD0nS3D89-30" value="" style="edgeStyle=orthogonalEdgeStyle;rounded=0;orthogonalLoop=1;jettySize=auto;html=1;" edge="1" parent="1" source="W8vYtDV4f-9OD0nS3D89-28" target="W8vYtDV4f-9OD0nS3D89-29">
          <mxGeometry relative="1" as="geometry" />
        </mxCell>
        <mxCell id="W8vYtDV4f-9OD0nS3D89-40" value="下载成功" style="edgeLabel;html=1;align=center;verticalAlign=middle;resizable=0;points=[];" vertex="1" connectable="0" parent="W8vYtDV4f-9OD0nS3D89-30">
          <mxGeometry x="-0.1" y="-1" relative="1" as="geometry">
            <mxPoint as="offset" />
          </mxGeometry>
        </mxCell>
        <mxCell id="W8vYtDV4f-9OD0nS3D89-34" style="edgeStyle=orthogonalEdgeStyle;rounded=0;orthogonalLoop=1;jettySize=auto;html=1;entryX=0;entryY=0.5;entryDx=0;entryDy=0;" edge="1" parent="1" source="W8vYtDV4f-9OD0nS3D89-28" target="W8vYtDV4f-9OD0nS3D89-33">
          <mxGeometry relative="1" as="geometry" />
        </mxCell>
        <mxCell id="W8vYtDV4f-9OD0nS3D89-39" value="下载失败" style="edgeLabel;html=1;align=center;verticalAlign=middle;resizable=0;points=[];" vertex="1" connectable="0" parent="W8vYtDV4f-9OD0nS3D89-34">
          <mxGeometry x="-0.1" relative="1" as="geometry">
            <mxPoint as="offset" />
          </mxGeometry>
        </mxCell>
        <mxCell id="W8vYtDV4f-9OD0nS3D89-28" value="INIT/初始态" style="rounded=0;whiteSpace=wrap;html=1;" vertex="1" parent="1">
          <mxGeometry x="920" y="100" width="120" height="60" as="geometry" />
        </mxCell>
        <mxCell id="W8vYtDV4f-9OD0nS3D89-32" value="" style="edgeStyle=orthogonalEdgeStyle;rounded=0;orthogonalLoop=1;jettySize=auto;html=1;" edge="1" parent="1" source="W8vYtDV4f-9OD0nS3D89-29" target="W8vYtDV4f-9OD0nS3D89-31">
          <mxGeometry relative="1" as="geometry" />
        </mxCell>
        <mxCell id="W8vYtDV4f-9OD0nS3D89-43" value="上传成功" style="edgeLabel;html=1;align=center;verticalAlign=middle;resizable=0;points=[];" vertex="1" connectable="0" parent="W8vYtDV4f-9OD0nS3D89-32">
          <mxGeometry x="-0.35" y="-1" relative="1" as="geometry">
            <mxPoint as="offset" />
          </mxGeometry>
        </mxCell>
        <mxCell id="W8vYtDV4f-9OD0nS3D89-37" style="edgeStyle=orthogonalEdgeStyle;rounded=0;orthogonalLoop=1;jettySize=auto;html=1;exitX=1;exitY=0.75;exitDx=0;exitDy=0;entryX=0.5;entryY=0;entryDx=0;entryDy=0;" edge="1" parent="1" source="W8vYtDV4f-9OD0nS3D89-29" target="W8vYtDV4f-9OD0nS3D89-36">
          <mxGeometry relative="1" as="geometry" />
        </mxCell>
        <mxCell id="W8vYtDV4f-9OD0nS3D89-42" value="上传失败" style="edgeLabel;html=1;align=center;verticalAlign=middle;resizable=0;points=[];" vertex="1" connectable="0" parent="W8vYtDV4f-9OD0nS3D89-37">
          <mxGeometry x="0.5491" y="1" relative="1" as="geometry">
            <mxPoint as="offset" />
          </mxGeometry>
        </mxCell>
        <mxCell id="W8vYtDV4f-9OD0nS3D89-29" value="DOWNLOAD_SUCCESS/下载成功" style="rounded=0;whiteSpace=wrap;html=1;" vertex="1" parent="1">
          <mxGeometry x="872.5" y="240" width="215" height="60" as="geometry" />
        </mxCell>
        <mxCell id="W8vYtDV4f-9OD0nS3D89-31" value="UPLOAD_SUCCESS/上传成功" style="rounded=0;whiteSpace=wrap;html=1;fillColor=#ffe6cc;strokeColor=#d79b00;" vertex="1" parent="1">
          <mxGeometry x="872.5" y="380" width="215" height="60" as="geometry" />
        </mxCell>
        <mxCell id="W8vYtDV4f-9OD0nS3D89-35" style="edgeStyle=orthogonalEdgeStyle;rounded=0;orthogonalLoop=1;jettySize=auto;html=1;entryX=1;entryY=0.25;entryDx=0;entryDy=0;exitX=0.5;exitY=1;exitDx=0;exitDy=0;" edge="1" parent="1" source="W8vYtDV4f-9OD0nS3D89-33" target="W8vYtDV4f-9OD0nS3D89-29">
          <mxGeometry relative="1" as="geometry" />
        </mxCell>
        <mxCell id="W8vYtDV4f-9OD0nS3D89-41" value="失败重试" style="edgeLabel;html=1;align=center;verticalAlign=middle;resizable=0;points=[];" vertex="1" connectable="0" parent="W8vYtDV4f-9OD0nS3D89-35">
          <mxGeometry x="-0.68" y="-2" relative="1" as="geometry">
            <mxPoint as="offset" />
          </mxGeometry>
        </mxCell>
        <mxCell id="W8vYtDV4f-9OD0nS3D89-33" value="DOWNLOAD_FAIL/下载失败" style="rounded=0;whiteSpace=wrap;html=1;fillColor=#ffe6cc;strokeColor=#d79b00;" vertex="1" parent="1">
          <mxGeometry x="1200" y="100" width="215" height="60" as="geometry" />
        </mxCell>
        <mxCell id="W8vYtDV4f-9OD0nS3D89-38" style="edgeStyle=orthogonalEdgeStyle;rounded=0;orthogonalLoop=1;jettySize=auto;html=1;entryX=1;entryY=0.5;entryDx=0;entryDy=0;" edge="1" parent="1" source="W8vYtDV4f-9OD0nS3D89-36" target="W8vYtDV4f-9OD0nS3D89-31">
          <mxGeometry relative="1" as="geometry" />
        </mxCell>
        <mxCell id="W8vYtDV4f-9OD0nS3D89-44" value="失败重试" style="edgeLabel;html=1;align=center;verticalAlign=middle;resizable=0;points=[];" vertex="1" connectable="0" parent="W8vYtDV4f-9OD0nS3D89-38">
          <mxGeometry x="-0.0578" y="2" relative="1" as="geometry">
            <mxPoint as="offset" />
          </mxGeometry>
        </mxCell>
        <mxCell id="W8vYtDV4f-9OD0nS3D89-36" value="UPLOAD_FAIL/上传失败" style="rounded=0;whiteSpace=wrap;html=1;fillColor=#ffe6cc;strokeColor=#d79b00;" vertex="1" parent="1">
          <mxGeometry x="1200" y="380" width="215" height="60" as="geometry" />
        </mxCell>
        <mxCell id="W8vYtDV4f-9OD0nS3D89-46" value="中间态" style="rounded=0;whiteSpace=wrap;html=1;" vertex="1" parent="1">
          <mxGeometry x="1500" y="100" width="110" height="40" as="geometry" />
        </mxCell>
        <mxCell id="W8vYtDV4f-9OD0nS3D89-47" value="终态" style="rounded=0;whiteSpace=wrap;html=1;fillColor=#ffe6cc;strokeColor=#d79b00;" vertex="1" parent="1">
          <mxGeometry x="1500" y="160" width="110" height="40" as="geometry" />
        </mxCell>
      </root>
    </mxGraphModel>
  </diagram>
</mxfile>
